<svg
  t="1707726966085"
  class="icon"
  viewBox="0 0 1024 1024"
  version="1.1"
  xmlns="http://www.w3.org/2000/svg"
  p-id="6397"
  width="24"
  height="24">
  <path
    d="M512 938.667c-235.264 0-426.667-191.424-426.667-426.645 0-235.264 191.403-426.688 426.667-426.688 235.243 0 426.667 191.424 426.667 426.688 0 235.221-191.424 426.645-426.667 426.645zM512 128c-211.733 0-384 172.267-384 384.021 0 211.733 172.267 383.979 384 383.979s384-172.245 384-383.979c0-211.755-172.267-384.021-384-384.021z"
    p-id="6398"></path>
  <path d="M490.667 277.333l42.667 0 0 469.333-42.667 0 0-469.333z" p-id="6399"></path>
  <path d="M277.333 490.667l469.333 0 0 42.667-469.333 0 0-42.667z" p-id="6400"></path>
</svg>