<svg
    t="1708953409839"
    class="icon"
    viewBox="0 0 1024 1024"
    version="1.1"
    xmlns="http://www.w3.org/2000/svg"
    p-id="2804"
    width="128"
    height="128">
    <path
    d="M1010.176376 38.198189C1007.576499 25.998767 997.976954 16.399222 985.777533 13.799346 921.380586 0 870.982976 0 820.785357 0 614.395144 0 490.601015 110.394765 398.205396 255.987861H189.815279c-36.398274 0-69.5967 20.599023-85.795932 52.997486L5.224032 506.575977c-15.999241 31.998483 7.199659 69.396709 42.997961 69.396709h190.190981c-11.79944 25.598786-23.798871 50.997582-35.998293 75.396425-6.199706 12.399412-3.79982 27.19871 5.999716 36.998245l127.193968 127.193969c9.799535 9.799535 24.598833 12.199421 36.998245 5.999715 24.398843-12.199421 49.797639-23.998862 75.396425-35.798302V975.953718c0 35.598312 37.598217 58.797212 69.396709 42.997961l197.390639-98.795315c32.598454-16.199232 52.997487-49.597648 52.997487-85.795931V625.570334c145.193115-92.595609 255.987861-216.789719 255.987861-422.179979 0.199991-50.39761 0.199991-100.79522-13.599355-165.192166zM799.986343 319.984826c-52.997487 0-95.995448-42.997961-95.995448-95.995448s42.997961-95.995448 95.995448-95.995448 95.995448 42.997961 95.995448 95.995448-42.997961 95.995448-95.995448 95.995448z"
    fill="#ffffff"
    p-id="2805"></path>
</svg>